<?xml version="1.0" encoding="UTF-8" standalone="no"?>
<svg
   height="100%"
   style="fill-rule:evenodd;clip-rule:evenodd;stroke-linejoin:round;stroke-miterlimit:2;"
   version="1.1"
   viewBox="0 0 512 512"
   width="100%"
   xml:space="preserve"
   id="svg1"
   sodipodi:docname="facebook_icon.svg"
   inkscape:version="1.4 (e7c3feb100, 2024-10-09)"
   inkscape:export-filename="facebook_icon.png"
   inkscape:export-xdpi="96"
   inkscape:export-ydpi="96"
   xmlns:inkscape="http://www.inkscape.org/namespaces/inkscape"
   xmlns:sodipodi="http://sodipodi.sourceforge.net/DTD/sodipodi-0.dtd"
   xmlns="http://www.w3.org/2000/svg"
   xmlns:svg="http://www.w3.org/2000/svg"><defs
     id="defs1" /><sodipodi:namedview
     id="namedview1"
     pagecolor="#ffffff"
     bordercolor="#000000"
     borderopacity="0.25"
     inkscape:showpageshadow="2"
     inkscape:pageopacity="0.0"
     inkscape:pagecheckerboard="0"
     inkscape:deskcolor="#d1d1d1"
     inkscape:zoom="1.2109375"
     inkscape:cx="255.5871"
     inkscape:cy="256"
     inkscape:window-width="1600"
     inkscape:window-height="831"
     inkscape:window-x="0"
     inkscape:window-y="0"
     inkscape:window-maximized="1"
     inkscape:current-layer="svg1" /><path
     d="M512,257.555c0,-141.385 -114.615,-256 -256,-256c-141.385,0 -256,114.615 -256,256c0,127.777 93.616,233.685 216,252.89l0,-178.89l-65,0l0,-74l65,0l0,-56.4c0,-64.16 38.219,-99.6 96.695,-99.6c28.009,0 57.305,5 57.305,5l0,63l-32.281,0c-31.801,0 -41.719,19.733 -41.719,39.978l0,48.022l71,0l-11.35,74l-59.65,0l0,178.89c122.385,-19.205 216,-125.113 216,-252.89Z"
     style="fill-rule:nonzero;fill:#805b10;fill-opacity:1"
     id="path1" /></svg>
